{
	"asset":{
		"generator":"Khronos glTF Blender I/O v4.0.44",
		"version":"2.0"
	},
	"extensionsUsed":[
		"KHR_materials_specular",
		"KHR_materials_ior",
		"KHR_texture_transform"
	],
	"extensionsRequired":[
		"KHR_texture_transform"
	],
	"scene":0,
	"scenes":[
		{
			"name":"Scene",
			"nodes":[
				0
			]
		}
	],
	"nodes":[
		{
			"mesh":0,
			"name":"GS Deciduous bush A 4",
			"translation":[
				3.1542797088623047,
				0.03958404064178467,
				-0.15612435340881348
			]
		}
	],
	"materials":[
		{
			"doubleSided":true,
			"extensions":{
				"KHR_materials_specular":{
					"specularFactor":0.4000000059604645
				},
				"KHR_materials_ior":{
					"ior":1.4500000476837158
				}
			},
			"name":".gs_bark_bush",
			"normalTexture":{
				"extensions":{
					"KHR_texture_transform":{
						"offset":[
							0,
							-21.099998474121094
						],
						"scale":[
							19.099998474121094,
							22.099998474121094
						]
					}
				},
				"index":0
			},
			"pbrMetallicRoughness":{
				"baseColorTexture":{
					"extensions":{
						"KHR_texture_transform":{
							"offset":[
								0,
								-21.099998474121094
							],
							"scale":[
								19.099998474121094,
								22.099998474121094
							]
						}
					},
					"index":1
				},
				"metallicFactor":0,
				"metallicRoughnessTexture":{
					"extensions":{
						"KHR_texture_transform":{
							"offset":[
								0,
								-21.099998474121094
							],
							"scale":[
								19.099998474121094,
								22.099998474121094
							]
						}
					},
					"index":2
				}
			}
		},
		{
			"doubleSided":true,
			"name":".gs_deciduous_bush_a_leaves.002",
			"normalTexture":{
				"extensions":{
					"KHR_texture_transform":{
						"offset":[
							0,
							0.15999996662139893
						],
						"scale":[
							0.6200000047683716,
							0.8400000333786011
						]
					}
				},
				"index":3
			},
			"pbrMetallicRoughness":{
				"baseColorTexture":{
					"extensions":{
						"KHR_texture_transform":{
							"offset":[
								0,
								0.15999996662139893
							],
							"scale":[
								0.6200000047683716,
								0.8400000333786011
							]
						}
					},
					"index":4
				},
				"metallicFactor":0,
				"metallicRoughnessTexture":{
					"extensions":{
						"KHR_texture_transform":{
							"offset":[
								0,
								0.15999996662139893
							],
							"scale":[
								0.6200000047683716,
								0.8400000333786011
							]
						}
					},
					"index":5
				}
			}
		}
	],
	"meshes":[
		{
			"name":"gs_deciduous_bush_a_4",
			"primitives":[
				{
					"attributes":{
						"POSITION":0,
						"NORMAL":1,
						"TEXCOORD_0":2
					},
					"indices":3,
					"material":0
				},
				{
					"attributes":{
						"POSITION":4,
						"NORMAL":5,
						"TEXCOORD_0":6
					},
					"indices":7,
					"material":1
				}
			]
		}
	],
	"textures":[
		{
			"sampler":0,
			"source":0
		},
		{
			"sampler":0,
			"source":1
		},
		{
			"sampler":0,
			"source":2
		},
		{
			"sampler":0,
			"source":3
		},
		{
			"sampler":0,
			"source":3
		},
		{
			"sampler":0,
			"source":4
		}
	],
	"images":[
		{
			"mimeType":"image/png",
			"name":"bark_04-normal",
			"uri":"bark_04-normal.png"
		},
		{
			"mimeType":"image/png",
			"name":"bark_04-basecolor",
			"uri":"bark_04-basecolor.png"
		},
		{
			"mimeType":"image/png",
			"name":"bark_04-roughness",
			"uri":"bark_04-roughness.png"
		},
		{
			"mimeType":"image/png",
			"name":"Bush _02",
			"uri":"Bush%20_02.png"
		},
		{
			"mimeType":"image/png",
			"name":"Bush _02",
			"uri":"Bush%20_02-1.png"
		}
	],
	"accessors":[
		{
			"bufferView":0,
			"componentType":5126,
			"count":29198,
			"max":[
				1.0153663158416748,
				1.424861192703247,
				1.0087192058563232
			],
			"min":[
				-1.1276400089263916,
				-0.057367391884326935,
				-1.033144474029541
			],
			"type":"VEC3"
		},
		{
			"bufferView":1,
			"componentType":5126,
			"count":29198,
			"type":"VEC3"
		},
		{
			"bufferView":2,
			"componentType":5126,
			"count":29198,
			"type":"VEC2"
		},
		{
			"bufferView":3,
			"componentType":5123,
			"count":80910,
			"type":"SCALAR"
		},
		{
			"bufferView":4,
			"componentType":5126,
			"count":186035,
			"max":[
				1.165928602218628,
				1.4135441780090332,
				1.0739414691925049
			],
			"min":[
				-1.1543155908584595,
				0.04225768893957138,
				-1.0773282051086426
			],
			"type":"VEC3"
		},
		{
			"bufferView":5,
			"componentType":5126,
			"count":186035,
			"type":"VEC3"
		},
		{
			"bufferView":6,
			"componentType":5126,
			"count":186035,
			"type":"VEC2"
		},
		{
			"bufferView":7,
			"componentType":5125,
			"count":529143,
			"type":"SCALAR"
		}
	],
	"bufferViews":[
		{
			"buffer":0,
			"byteLength":350376,
			"byteOffset":0,
			"target":34962
		},
		{
			"buffer":0,
			"byteLength":350376,
			"byteOffset":350376,
			"target":34962
		},
		{
			"buffer":0,
			"byteLength":233584,
			"byteOffset":700752,
			"target":34962
		},
		{
			"buffer":0,
			"byteLength":161820,
			"byteOffset":934336,
			"target":34963
		},
		{
			"buffer":0,
			"byteLength":2232420,
			"byteOffset":1096156,
			"target":34962
		},
		{
			"buffer":0,
			"byteLength":2232420,
			"byteOffset":3328576,
			"target":34962
		},
		{
			"buffer":0,
			"byteLength":1488280,
			"byteOffset":5560996,
			"target":34962
		},
		{
			"buffer":0,
			"byteLength":2116572,
			"byteOffset":7049276,
			"target":34963
		}
	],
	"samplers":[
		{
			"magFilter":9729,
			"minFilter":9987
		}
	],
	"buffers":[
		{
			"byteLength":9165848,
			"uri":"plant2.bin"
		}
	]
}
