{
	"asset":{
		"generator":"Khronos glTF Blender I/O v4.0.44",
		"version":"2.0"
	},
	"extensionsUsed":[
		"KHR_materials_specular",
		"KHR_materials_ior",
		"KHR_texture_transform"
	],
	"extensionsRequired":[
		"KHR_texture_transform"
	],
	"scene":0,
	"scenes":[
		{
			"name":"Scene",
			"nodes":[
				0
			]
		}
	],
	"nodes":[
		{
			"mesh":0,
			"name":"GS Autumn bush full 02",
			"translation":[
				6.134182929992676,
				0.03821754455566406,
				0.017324447631835938
			]
		}
	],
	"materials":[
		{
			"doubleSided":true,
			"extensions":{
				"KHR_materials_specular":{
					"specularFactor":0.4000000059604645
				},
				"KHR_materials_ior":{
					"ior":1.4500000476837158
				}
			},
			"name":".gs_bark_autumn.001",
			"normalTexture":{
				"extensions":{
					"KHR_texture_transform":{
						"offset":[
							0,
							-12.899999618530273
						],
						"scale":[
							10.899999618530273,
							13.899999618530273
						]
					}
				},
				"index":0
			},
			"pbrMetallicRoughness":{
				"baseColorTexture":{
					"extensions":{
						"KHR_texture_transform":{
							"offset":[
								0,
								-12.899999618530273
							],
							"scale":[
								10.899999618530273,
								13.899999618530273
							]
						}
					},
					"index":1
				},
				"metallicFactor":0,
				"metallicRoughnessTexture":{
					"extensions":{
						"KHR_texture_transform":{
							"offset":[
								0,
								-12.899999618530273
							],
							"scale":[
								10.899999618530273,
								13.899999618530273
							]
						}
					},
					"index":2
				}
			}
		},
		{
			"alphaCutoff":0.2450980246067047,
			"alphaMode":"MASK",
			"doubleSided":true,
			"name":".gs_autumn_dead_leaves_03.001",
			"normalTexture":{
				"index":3
			},
			"pbrMetallicRoughness":{
				"baseColorTexture":{
					"index":4
				},
				"metallicFactor":0,
				"roughnessFactor":0.800000011920929
			}
		}
	],
	"meshes":[
		{
			"name":"gs_autumn_bush_full_02",
			"primitives":[
				{
					"attributes":{
						"POSITION":0,
						"NORMAL":1,
						"TEXCOORD_0":2
					},
					"indices":3,
					"material":0
				},
				{
					"attributes":{
						"POSITION":4,
						"NORMAL":5,
						"TEXCOORD_0":6
					},
					"indices":7,
					"material":1
				}
			]
		}
	],
	"textures":[
		{
			"sampler":0,
			"source":0
		},
		{
			"sampler":0,
			"source":1
		},
		{
			"sampler":0,
			"source":2
		},
		{
			"sampler":0,
			"source":3
		},
		{
			"sampler":0,
			"source":3
		}
	],
	"images":[
		{
			"mimeType":"image/png",
			"name":"bark_04-normal",
			"uri":"bark_04-normal.png"
		},
		{
			"mimeType":"image/png",
			"name":"bark_04-basecolor",
			"uri":"bark_04-basecolor.png"
		},
		{
			"mimeType":"image/png",
			"name":"bark_04-roughness",
			"uri":"bark_04-roughness.png"
		},
		{
			"mimeType":"image/png",
			"name":"LeafSet14_col",
			"uri":"LeafSet14_col.png"
		}
	],
	"accessors":[
		{
			"bufferView":0,
			"componentType":5126,
			"count":9159,
			"max":[
				0.34751686453819275,
				0.782214879989624,
				0.17921775579452515
			],
			"min":[
				-0.38326939940452576,
				-0.03821742907166481,
				-0.26544463634490967
			],
			"type":"VEC3"
		},
		{
			"bufferView":1,
			"componentType":5126,
			"count":9159,
			"type":"VEC3"
		},
		{
			"bufferView":2,
			"componentType":5126,
			"count":9159,
			"type":"VEC2"
		},
		{
			"bufferView":3,
			"componentType":5123,
			"count":14145,
			"type":"SCALAR"
		},
		{
			"bufferView":4,
			"componentType":5126,
			"count":20268,
			"max":[
				0.4407450556755066,
				0.8541133403778076,
				0.30875465273857117
			],
			"min":[
				-0.4924723207950592,
				0.2293875515460968,
				-0.3734843134880066
			],
			"type":"VEC3"
		},
		{
			"bufferView":5,
			"componentType":5126,
			"count":20268,
			"type":"VEC3"
		},
		{
			"bufferView":6,
			"componentType":5126,
			"count":20268,
			"type":"VEC2"
		},
		{
			"bufferView":7,
			"componentType":5123,
			"count":36402,
			"type":"SCALAR"
		}
	],
	"bufferViews":[
		{
			"buffer":0,
			"byteLength":109908,
			"byteOffset":0,
			"target":34962
		},
		{
			"buffer":0,
			"byteLength":109908,
			"byteOffset":109908,
			"target":34962
		},
		{
			"buffer":0,
			"byteLength":73272,
			"byteOffset":219816,
			"target":34962
		},
		{
			"buffer":0,
			"byteLength":28290,
			"byteOffset":293088,
			"target":34963
		},
		{
			"buffer":0,
			"byteLength":243216,
			"byteOffset":321380,
			"target":34962
		},
		{
			"buffer":0,
			"byteLength":243216,
			"byteOffset":564596,
			"target":34962
		},
		{
			"buffer":0,
			"byteLength":162144,
			"byteOffset":807812,
			"target":34962
		},
		{
			"buffer":0,
			"byteLength":72804,
			"byteOffset":969956,
			"target":34963
		}
	],
	"samplers":[
		{
			"magFilter":9729,
			"minFilter":9987
		}
	],
	"buffers":[
		{
			"byteLength":1042760,
			"uri":"plant2.bin"
		}
	]
}
