{
	"asset":{
		"generator":"Khronos glTF Blender I/O v4.0.44",
		"version":"2.0"
	},
	"extensionsUsed":[
		"KHR_materials_specular",
		"KHR_materials_ior",
		"KHR_texture_transform"
	],
	"extensionsRequired":[
		"KHR_texture_transform"
	],
	"scene":0,
	"scenes":[
		{
			"name":"Scene",
			"nodes":[
				0
			]
		}
	],
	"nodes":[
		{
			"mesh":0,
			"name":"GS Forest young B 03",
			"translation":[
				10.275493621826172,
				0.042241573333740234,
				0.05046415328979492
			]
		}
	],
	"materials":[
		{
			"doubleSided":true,
			"extensions":{
				"KHR_materials_specular":{
					"specularFactor":0.7939394116401672
				},
				"KHR_materials_ior":{
					"ior":1.4500000476837158
				}
			},
			"name":".gs_tropical_bark",
			"normalTexture":{
				"extensions":{
					"KHR_texture_transform":{
						"offset":[
							0,
							-9
						],
						"scale":[
							10,
							10
						]
					}
				},
				"index":0
			},
			"pbrMetallicRoughness":{
				"baseColorTexture":{
					"extensions":{
						"KHR_texture_transform":{
							"offset":[
								0,
								-9
							],
							"scale":[
								10,
								10
							]
						}
					},
					"index":1
				},
				"metallicFactor":0,
				"roughnessFactor":0.9303030371665955
			}
		},
		{
			"alphaMode":"BLEND",
			"doubleSided":true,
			"extensions":{
				"KHR_materials_specular":{
					"specularTexture":{
						"index":2
					}
				},
				"KHR_materials_ior":{
					"ior":1.4500000476837158
				}
			},
			"name":".gs_tropical_leaves",
			"normalTexture":{
				"index":3
			},
			"pbrMetallicRoughness":{
				"baseColorTexture":{
					"index":4
				},
				"metallicFactor":0,
				"metallicRoughnessTexture":{
					"index":5
				}
			}
		}
	],
	"meshes":[
		{
			"name":"gs_forest_young_b_03",
			"primitives":[
				{
					"attributes":{
						"POSITION":0,
						"NORMAL":1,
						"TEXCOORD_0":2
					},
					"indices":3,
					"material":0
				},
				{
					"attributes":{
						"POSITION":4,
						"NORMAL":5,
						"TEXCOORD_0":6
					},
					"indices":7,
					"material":1
				}
			]
		}
	],
	"textures":[
		{
			"sampler":0,
			"source":0
		},
		{
			"sampler":0,
			"source":0
		},
		{
			"sampler":1,
			"source":1
		},
		{
			"sampler":1,
			"source":2
		},
		{
			"sampler":1,
			"source":2
		},
		{
			"sampler":1,
			"source":3
		}
	],
	"images":[
		{
			"mimeType":"image/png",
			"name":"BARK_02-basecolor",
			"uri":"BARK_02-basecolor.png"
		},
		{
			"mimeType":"image/png",
			"name":"TROPICAL LEAVES",
			"uri":"TROPICAL%20LEAVES.png"
		},
		{
			"mimeType":"image/png",
			"name":"TROPICAL LEAVES",
			"uri":"TROPICAL%20LEAVES-1.png"
		},
		{
			"mimeType":"image/png",
			"name":"TROPICAL LEAVES",
			"uri":"TROPICAL%20LEAVES-2.png"
		}
	],
	"accessors":[
		{
			"bufferView":0,
			"componentType":5126,
			"count":7843,
			"max":[
				0.5126619935035706,
				1.5407090187072754,
				0.44019222259521484
			],
			"min":[
				-0.5773084759712219,
				-0.010877519845962524,
				-0.6312624216079712
			],
			"type":"VEC3"
		},
		{
			"bufferView":1,
			"componentType":5126,
			"count":7843,
			"type":"VEC3"
		},
		{
			"bufferView":2,
			"componentType":5126,
			"count":7843,
			"type":"VEC2"
		},
		{
			"bufferView":3,
			"componentType":5123,
			"count":32361,
			"type":"SCALAR"
		},
		{
			"bufferView":4,
			"componentType":5126,
			"count":36660,
			"max":[
				0.673547089099884,
				1.590940237045288,
				0.6224236488342285
			],
			"min":[
				-0.6691443920135498,
				-0.042241550981998444,
				-0.8174297213554382
			],
			"type":"VEC3"
		},
		{
			"bufferView":5,
			"componentType":5126,
			"count":36660,
			"type":"VEC3"
		},
		{
			"bufferView":6,
			"componentType":5126,
			"count":36660,
			"type":"VEC2"
		},
		{
			"bufferView":7,
			"componentType":5123,
			"count":148332,
			"type":"SCALAR"
		}
	],
	"bufferViews":[
		{
			"buffer":0,
			"byteLength":94116,
			"byteOffset":0,
			"target":34962
		},
		{
			"buffer":0,
			"byteLength":94116,
			"byteOffset":94116,
			"target":34962
		},
		{
			"buffer":0,
			"byteLength":62744,
			"byteOffset":188232,
			"target":34962
		},
		{
			"buffer":0,
			"byteLength":64722,
			"byteOffset":250976,
			"target":34963
		},
		{
			"buffer":0,
			"byteLength":439920,
			"byteOffset":315700,
			"target":34962
		},
		{
			"buffer":0,
			"byteLength":439920,
			"byteOffset":755620,
			"target":34962
		},
		{
			"buffer":0,
			"byteLength":293280,
			"byteOffset":1195540,
			"target":34962
		},
		{
			"buffer":0,
			"byteLength":296664,
			"byteOffset":1488820,
			"target":34963
		}
	],
	"samplers":[
		{
			"magFilter":9729,
			"minFilter":9987
		},
		{
			"magFilter":9729,
			"minFilter":9987,
			"wrapS":33071,
			"wrapT":33071
		}
	],
	"buffers":[
		{
			"byteLength":1785484,
			"uri":"plant5.bin"
		}
	]
}
