{
	"asset":{
		"generator":"Khronos glTF Blender I/O v4.0.44",
		"version":"2.0"
	},
	"extensionsUsed":[
		"KHR_materials_specular",
		"KHR_materials_ior",
		"KHR_texture_transform"
	],
	"extensionsRequired":[
		"KHR_texture_transform"
	],
	"scene":0,
	"scenes":[
		{
			"name":"Scene",
			"nodes":[
				0
			]
		}
	],
	"nodes":[
		{
			"mesh":0,
			"name":"GS Deciduous bush A 1",
			"translation":[
				0.0067462921142578125,
				0.09453630447387695,
				-0.08094215393066406
			]
		}
	],
	"materials":[
		{
			"doubleSided":true,
			"extensions":{
				"KHR_materials_specular":{
					"specularFactor":0.4000000059604645
				},
				"KHR_materials_ior":{
					"ior":1.4500000476837158
				}
			},
			"name":".gs_bark_bush",
			"normalTexture":{
				"extensions":{
					"KHR_texture_transform":{
						"offset":[
							0,
							-21.099998474121094
						],
						"scale":[
							19.099998474121094,
							22.099998474121094
						]
					}
				},
				"index":0
			},
			"pbrMetallicRoughness":{
				"baseColorTexture":{
					"extensions":{
						"KHR_texture_transform":{
							"offset":[
								0,
								-21.099998474121094
							],
							"scale":[
								19.099998474121094,
								22.099998474121094
							]
						}
					},
					"index":1
				},
				"metallicFactor":0,
				"metallicRoughnessTexture":{
					"extensions":{
						"KHR_texture_transform":{
							"offset":[
								0,
								-21.099998474121094
							],
							"scale":[
								19.099998474121094,
								22.099998474121094
							]
						}
					},
					"index":2
				}
			}
		},
		{
			"doubleSided":true,
			"name":".gs_deciduous_bush_a_leaves.002",
			"normalTexture":{
				"extensions":{
					"KHR_texture_transform":{
						"offset":[
							0,
							0.15999996662139893
						],
						"scale":[
							0.6200000047683716,
							0.8400000333786011
						]
					}
				},
				"index":3
			},
			"pbrMetallicRoughness":{
				"baseColorTexture":{
					"extensions":{
						"KHR_texture_transform":{
							"offset":[
								0,
								0.15999996662139893
							],
							"scale":[
								0.6200000047683716,
								0.8400000333786011
							]
						}
					},
					"index":4
				},
				"metallicFactor":0,
				"metallicRoughnessTexture":{
					"extensions":{
						"KHR_texture_transform":{
							"offset":[
								0,
								0.15999996662139893
							],
							"scale":[
								0.6200000047683716,
								0.8400000333786011
							]
						}
					},
					"index":5
				}
			}
		}
	],
	"meshes":[
		{
			"name":"gs_deciduous_bush_a_1",
			"primitives":[
				{
					"attributes":{
						"POSITION":0,
						"NORMAL":1,
						"TEXCOORD_0":2
					},
					"indices":3,
					"material":0
				},
				{
					"attributes":{
						"POSITION":4,
						"NORMAL":5,
						"TEXCOORD_0":6
					},
					"indices":7,
					"material":1
				}
			]
		}
	],
	"textures":[
		{
			"sampler":0,
			"source":0
		},
		{
			"sampler":0,
			"source":1
		},
		{
			"sampler":0,
			"source":2
		},
		{
			"sampler":0,
			"source":3
		},
		{
			"sampler":0,
			"source":3
		},
		{
			"sampler":0,
			"source":4
		}
	],
	"images":[
		{
			"mimeType":"image/png",
			"name":"bark_04-normal",
			"uri":"bark_04-normal.png"
		},
		{
			"mimeType":"image/png",
			"name":"bark_04-basecolor",
			"uri":"bark_04-basecolor.png"
		},
		{
			"mimeType":"image/png",
			"name":"bark_04-roughness",
			"uri":"bark_04-roughness.png"
		},
		{
			"mimeType":"image/png",
			"name":"Bush _02",
			"uri":"Bush%20_02.png"
		},
		{
			"mimeType":"image/png",
			"name":"Bush _02",
			"uri":"Bush%20_02-1.png"
		}
	],
	"accessors":[
		{
			"bufferView":0,
			"componentType":5126,
			"count":2269,
			"max":[
				0.758865237236023,
				0.7624629735946655,
				0.6663405299186707
			],
			"min":[
				-0.5936403870582581,
				-0.09453640878200531,
				-0.5184098482131958
			],
			"type":"VEC3"
		},
		{
			"bufferView":1,
			"componentType":5126,
			"count":2269,
			"type":"VEC3"
		},
		{
			"bufferView":2,
			"componentType":5126,
			"count":2269,
			"type":"VEC2"
		},
		{
			"bufferView":3,
			"componentType":5123,
			"count":6075,
			"type":"SCALAR"
		},
		{
			"bufferView":4,
			"componentType":5126,
			"count":43319,
			"max":[
				0.9584002494812012,
				0.8426349759101868,
				0.8726486563682556
			],
			"min":[
				-0.7431288361549377,
				-0.07636256515979767,
				-0.711419939994812
			],
			"type":"VEC3"
		},
		{
			"bufferView":5,
			"componentType":5126,
			"count":43319,
			"type":"VEC3"
		},
		{
			"bufferView":6,
			"componentType":5126,
			"count":43319,
			"type":"VEC2"
		},
		{
			"bufferView":7,
			"componentType":5123,
			"count":139554,
			"type":"SCALAR"
		}
	],
	"bufferViews":[
		{
			"buffer":0,
			"byteLength":27228,
			"byteOffset":0,
			"target":34962
		},
		{
			"buffer":0,
			"byteLength":27228,
			"byteOffset":27228,
			"target":34962
		},
		{
			"buffer":0,
			"byteLength":18152,
			"byteOffset":54456,
			"target":34962
		},
		{
			"buffer":0,
			"byteLength":12150,
			"byteOffset":72608,
			"target":34963
		},
		{
			"buffer":0,
			"byteLength":519828,
			"byteOffset":84760,
			"target":34962
		},
		{
			"buffer":0,
			"byteLength":519828,
			"byteOffset":604588,
			"target":34962
		},
		{
			"buffer":0,
			"byteLength":346552,
			"byteOffset":1124416,
			"target":34962
		},
		{
			"buffer":0,
			"byteLength":279108,
			"byteOffset":1470968,
			"target":34963
		}
	],
	"samplers":[
		{
			"magFilter":9729,
			"minFilter":9987
		}
	],
	"buffers":[
		{
			"byteLength":1750076,
			"uri":"plant1.bin"
		}
	]
}
