{
  "accessors": [
    {
      "bufferView": 2,
      "componentType": 5126,
      "count": 65532,
      "max": [
        9.54069995880127,
        -2.8616199493408203,
        -2.8318700790405273
      ],
      "min": [
        -1.7172199487686157,
        -3.5051589012145996,
        -6.207733154296875
      ],
      "type": "VEC3"
    },
    {
      "bufferView": 2,
      "byteOffset": 786384,
      "componentType": 5126,
      "count": 65532,
      "max": [
        0.9999642372131348,
        0.9999982714653015,
        0.9999834895133972
      ],
      "min": [
        -0.9999884366989136,
        -0.9995771646499634,
        -0.9999992251396179
      ],
      "type": "VEC3"
    },
    {
      "bufferView": 1,
      "componentType": 5126,
      "count": 65532,
      "max": [
        0.9909049868583679,
        0.9993929862976074
      ],
      "min": [
        0.002879000036045909,
        0.028311999514698982
      ],
      "type": "VEC2"
    },
    {
      "bufferView": 0,
      "componentType": 5125,
      "count": 308586,
      "type": "SCALAR"
    },
    {
      "bufferView": 2,
      "byteOffset": 1572768,
      "componentType": 5126,
      "count": 65532,
      "max": [
        9.65854263305664,
        -3.0139501094818115,
        -2.819211006164551
      ],
      "min": [
        -1.7173689603805542,
        -3.6056759357452393,
        -6.17702579498291
      ],
      "type": "VEC3"
    },
    {
      "bufferView": 2,
      "byteOffset": 2359152,
      "componentType": 5126,
      "count": 65532,
      "max": [
        0.9999731183052063,
        0.9999927282333374,
        0.9999834895133972
      ],
      "min": [
        -0.9999991655349731,
        -0.999995768070221,
        -0.9999552369117737
      ],
      "type": "VEC3"
    },
    {
      "bufferView": 1,
      "byteOffset": 524256,
      "componentType": 5126,
      "count": 65532,
      "max": [
        0.9936969876289368,
        0.999405026435852
      ],
      "min": [
        0.002423000056296587,
        0.03046100027859211
      ],
      "type": "VEC2"
    },
    {
      "bufferView": 0,
      "byteOffset": 1234344,
      "componentType": 5125,
      "count": 291123,
      "type": "SCALAR"
    },
    {
      "bufferView": 2,
      "byteOffset": 3145536,
      "componentType": 5126,
      "count": 65532,
      "max": [
        9.710234642028809,
        -3.0727899074554443,
        -2.8228108882904053
      ],
      "min": [
        -1.7172199487686157,
        -3.5763700008392334,
        -6.284717082977295
      ],
      "type": "VEC3"
    },
    {
      "bufferView": 2,
      "byteOffset": 3931920,
      "componentType": 5126,
      "count": 65532,
      "max": [
        0.999997615814209,
        0.9999984502792358,
        0.9999783635139465
      ],
      "min": [
        -0.99997478723526,
        -0.9998865127563477,
        -0.9999894499778748
      ],
      "type": "VEC3"
    },
    {
      "bufferView": 1,
      "byteOffset": 1048512,
      "componentType": 5126,
      "count": 65532,
      "max": [
        0.9943240284919739,
        0.9990540146827698
      ],
      "min": [
        0.002478000009432435,
        0.03290100023150444
      ],
      "type": "VEC2"
    },
    {
      "bufferView": 0,
      "byteOffset": 2398836,
      "componentType": 5125,
      "count": 290130,
      "type": "SCALAR"
    },
    {
      "bufferView": 2,
      "byteOffset": 4718304,
      "componentType": 5126,
      "count": 65532,
      "max": [
        9.718820571899414,
        -3.1110000610351563,
        -2.6788930892944336
      ],
      "min": [
        -1.689789056777954,
        -3.5150370597839355,
        -6.358016014099121
      ],
      "type": "VEC3"
    },
    {
      "bufferView": 2,
      "byteOffset": 5504688,
      "componentType": 5126,
      "count": 65532,
      "max": [
        0.9999986886978149,
        0.9999985694885254,
        0.9999853372573853
      ],
      "min": [
        -0.9999751448631287,
        -0.9999911785125732,
        -0.9999693632125854
      ],
      "type": "VEC3"
    },
    {
      "bufferView": 1,
      "byteOffset": 1572768,
      "componentType": 5126,
      "count": 65532,
      "max": [
        0.9937310218811035,
        0.9988160133361816
      ],
      "min": [
        0.002471999963745475,
        0.030338000506162643
      ],
      "type": "VEC2"
    },
    {
      "bufferView": 0,
      "byteOffset": 3559356,
      "componentType": 5125,
      "count": 281046,
      "type": "SCALAR"
    },
    {
      "bufferView": 2,
      "byteOffset": 6291072,
      "componentType": 5126,
      "count": 65532,
      "max": [
        9.70139217376709,
        -3.139575958251953,
        -2.712188959121704
      ],
      "min": [
        -1.7197920083999634,
        -3.5824739933013916,
        -6.353478908538818
      ],
      "type": "VEC3"
    },
    {
      "bufferView": 2,
      "byteOffset": 7077456,
      "componentType": 5126,
      "count": 65532,
      "max": [
        0.9999929070472717,
        0.999998152256012,
        0.9999853372573853
      ],
      "min": [
        -0.9999954104423523,
        -0.9997130036354065,
        -0.999985933303833
      ],
      "type": "VEC3"
    },
    {
      "bufferView": 1,
      "byteOffset": 2097024,
      "componentType": 5126,
      "count": 65532,
      "max": [
        0.9943130016326904,
        0.9997869729995728
      ],
      "min": [
        0.002736999886110425,
        0.02912599965929985
      ],
      "type": "VEC2"
    },
    {
      "bufferView": 0,
      "byteOffset": 4683540,
      "componentType": 5125,
      "count": 272652,
      "type": "SCALAR"
    },
    {
      "bufferView": 2,
      "byteOffset": 7863840,
      "componentType": 5126,
      "count": 65532,
      "max": [
        9.680685997009277,
        -3.1851940155029297,
        -2.533700942993164
      ],
      "min": [
        -1.663625955581665,
        -3.602339029312134,
        -6.348404884338379
      ],
      "type": "VEC3"
    },
    {
      "bufferView": 2,
      "byteOffset": 8650224,
      "componentType": 5126,
      "count": 65532,
      "max": [
        0.9999929070472717,
        0.9999970197677612,
        0.9999649524688721
      ],
      "min": [
        -0.999998152256012,
        -0.999852180480957,
        -0.9998642802238464
      ],
      "type": "VEC3"
    },
    {
      "bufferView": 1,
      "byteOffset": 2621280,
      "componentType": 5126,
      "count": 65532,
      "max": [
        0.9969180226325989,
        0.9997349977493286
      ],
      "min": [
        0.0022239999379962683,
        0.017860999330878258
      ],
      "type": "VEC2"
    },
    {
      "bufferView": 0,
      "byteOffset": 5774148,
      "componentType": 5125,
      "count": 282288,
      "type": "SCALAR"
    },
    {
      "bufferView": 2,
      "byteOffset": 9436608,
      "componentType": 5126,
      "count": 65532,
      "max": [
        9.70451831817627,
        -3.2131199836730957,
        -2.543447971343994
      ],
      "min": [
        -1.6610900163650513,
        -3.6384100914001465,
        -6.301890850067139
      ],
      "type": "VEC3"
    },
    {
      "bufferView": 2,
      "byteOffset": 10222992,
      "componentType": 5126,
      "count": 65532,
      "max": [
        0.9999469518661499,
        0.9999979734420776,
        0.9999902248382568
      ],
      "min": [
        -0.999998152256012,
        -0.9999480247497559,
        -0.999973475933075
      ],
      "type": "VEC3"
    },
    {
      "bufferView": 1,
      "byteOffset": 3145536,
      "componentType": 5126,
      "count": 65532,
      "max": [
        0.9973599910736084,
        0.9997580051422119
      ],
      "min": [
        0.0025390000082552433,
        0.007984000258147717
      ],
      "type": "VEC2"
    },
    {
      "bufferView": 0,
      "byteOffset": 6903300,
      "componentType": 5125,
      "count": 284991,
      "type": "SCALAR"
    },
    {
      "bufferView": 2,
      "byteOffset": 11009376,
      "componentType": 5126,
      "count": 65532,
      "max": [
        9.69514274597168,
        -2.8094000816345215,
        -2.2656400203704834
      ],
      "min": [
        -1.6651740074157715,
        -4.16422176361084,
        -6.295447826385498
      ],
      "type": "VEC3"
    },
    {
      "bufferView": 2,
      "byteOffset": 11795760,
      "componentType": 5126,
      "count": 65532,
      "max": [
        0.9999991655349731,
        0.9999998807907104,
        0.9999998211860657
      ],
      "min": [
        -0.9999799132347107,
        -0.999969482421875,
        -0.9998569488525391
      ],
      "type": "VEC3"
    },
    {
      "bufferView": 1,
      "byteOffset": 3669792,
      "componentType": 5126,
      "count": 65532,
      "max": [
        0.9951859712600708,
        1.0030200481414795
      ],
      "min": [
        0.0026889999862760305,
        0.0036720000207424164
      ],
      "type": "VEC2"
    },
    {
      "bufferView": 0,
      "byteOffset": 8043264,
      "componentType": 5125,
      "count": 282549,
      "type": "SCALAR"
    },
    {
      "bufferView": 2,
      "byteOffset": 12582144,
      "componentType": 5126,
      "count": 65532,
      "max": [
        9.671603202819824,
        -3.0250871181488037,
        -2.4164159297943115
      ],
      "min": [
        -1.670382022857666,
        -4.0640130043029785,
        -6.289909839630127
      ],
      "type": "VEC3"
    },
    {
      "bufferView": 2,
      "byteOffset": 13368528,
      "componentType": 5126,
      "count": 65532,
      "max": [
        0.9999966025352478,
        0.9999996423721313,
        0.999999463558197
      ],
      "min": [
        -0.999995231628418,
        -0.9999933838844299,
        -0.9999938011169434
      ],
      "type": "VEC3"
    },
    {
      "bufferView": 1,
      "byteOffset": 4194048,
      "componentType": 5126,
      "count": 65532,
      "max": [
        0.9972699880599976,
        1.0048489570617676
      ],
      "min": [
        -0.00011200000153621659,
        0.004162000026553869
      ],
      "type": "VEC2"
    },
    {
      "bufferView": 0,
      "byteOffset": 9173460,
      "componentType": 5125,
      "count": 222000,
      "type": "SCALAR"
    },
    {
      "bufferView": 2,
      "byteOffset": 14154912,
      "componentType": 5126,
      "count": 43285,
      "max": [
        9.683563232421875,
        -3.2116498947143555,
        -2.5282950401306152
      ],
      "min": [
        -1.6742539405822754,
        -3.421518087387085,
        -6.312685966491699
      ],
      "type": "VEC3"
    },
    {
      "bufferView": 2,
      "byteOffset": 14674332,
      "componentType": 5126,
      "count": 43285,
      "max": [
        0.999984860420227,
        0.9999788999557495,
        0.9999395608901978
      ],
      "min": [
        -0.9999656081199646,
        -0.9999123811721802,
        -0.9999904036521912
      ],
      "type": "VEC3"
    },
    {
      "bufferView": 1,
      "byteOffset": 4718304,
      "componentType": 5126,
      "count": 43285,
      "max": [
        0.996766984462738,
        0.9998019933700562
      ],
      "min": [
        0.002643000101670623,
        0.018230000510811806
      ],
      "type": "VEC2"
    },
    {
      "bufferView": 0,
      "byteOffset": 10061460,
      "componentType": 5125,
      "count": 119181,
      "type": "SCALAR"
    }
  ],
  "asset": {
    "extras": {
      "author": "Nikitos & 3130 (https://sketchfab.com/vrcityphoto)",
      "license": "CC-BY-4.0 (http://creativecommons.org/licenses/by/4.0/)",
      "source": "https://sketchfab.com/3d-models/gardening-park-landscape-7-a-53fe671651db4d9792827d6f61ac2287",
      "title": "Gardening. Park. Landscape. 7 a"
    },
    "generator": "Sketchfab-12.68.0",
    "version": "2.0"
  },
  "bufferViews": [
    {
      "buffer": 0,
      "byteLength": 10538184,
      "name": "floatBufferViews",
      "target": 34963
    },
    {
      "buffer": 0,
      "byteLength": 5064584,
      "byteOffset": 10538184,
      "byteStride": 8,
      "name": "floatBufferViews",
      "target": 34962
    },
    {
      "buffer": 0,
      "byteLength": 15193752,
      "byteOffset": 15602768,
      "byteStride": 12,
      "name": "floatBufferViews",
      "target": 34962
    }
  ],
  "buffers": [
    {
      "byteLength": 30796520,
      "uri": "scene.bin"
    }
  ],
  "extensionsUsed": [
    "KHR_materials_unlit"
  ],
  "images": [
    {
      "uri": "textures/model_baseColor.jpeg"
    }
  ],
  "materials": [
    {
      "doubleSided": true,
      "extensions": {
        "KHR_materials_unlit": {}
      },
      "name": "model",
      "pbrMetallicRoughness": {
        "baseColorTexture": {
          "index": 0
        },
        "metallicFactor": 0.0
      }
    }
  ],
  "meshes": [
    {
      "name": "Object_0",
      "primitives": [
        {
          "attributes": {
            "NORMAL": 1,
            "POSITION": 0,
            "TEXCOORD_0": 2
          },
          "indices": 3,
          "material": 0,
          "mode": 4
        }
      ]
    },
    {
      "name": "Object_1",
      "primitives": [
        {
          "attributes": {
            "NORMAL": 5,
            "POSITION": 4,
            "TEXCOORD_0": 6
          },
          "indices": 7,
          "material": 0,
          "mode": 4
        }
      ]
    },
    {
      "name": "Object_2",
      "primitives": [
        {
          "attributes": {
            "NORMAL": 9,
            "POSITION": 8,
            "TEXCOORD_0": 10
          },
          "indices": 11,
          "material": 0,
          "mode": 4
        }
      ]
    },
    {
      "name": "Object_3",
      "primitives": [
        {
          "attributes": {
            "NORMAL": 13,
            "POSITION": 12,
            "TEXCOORD_0": 14
          },
          "indices": 15,
          "material": 0,
          "mode": 4
        }
      ]
    },
    {
      "name": "Object_4",
      "primitives": [
        {
          "attributes": {
            "NORMAL": 17,
            "POSITION": 16,
            "TEXCOORD_0": 18
          },
          "indices": 19,
          "material": 0,
          "mode": 4
        }
      ]
    },
    {
      "name": "Object_5",
      "primitives": [
        {
          "attributes": {
            "NORMAL": 21,
            "POSITION": 20,
            "TEXCOORD_0": 22
          },
          "indices": 23,
          "material": 0,
          "mode": 4
        }
      ]
    },
    {
      "name": "Object_6",
      "primitives": [
        {
          "attributes": {
            "NORMAL": 25,
            "POSITION": 24,
            "TEXCOORD_0": 26
          },
          "indices": 27,
          "material": 0,
          "mode": 4
        }
      ]
    },
    {
      "name": "Object_7",
      "primitives": [
        {
          "attributes": {
            "NORMAL": 29,
            "POSITION": 28,
            "TEXCOORD_0": 30
          },
          "indices": 31,
          "material": 0,
          "mode": 4
        }
      ]
    },
    {
      "name": "Object_8",
      "primitives": [
        {
          "attributes": {
            "NORMAL": 33,
            "POSITION": 32,
            "TEXCOORD_0": 34
          },
          "indices": 35,
          "material": 0,
          "mode": 4
        }
      ]
    },
    {
      "name": "Object_9",
      "primitives": [
        {
          "attributes": {
            "NORMAL": 37,
            "POSITION": 36,
            "TEXCOORD_0": 38
          },
          "indices": 39,
          "material": 0,
          "mode": 4
        }
      ]
    }
  ],
  "nodes": [
    {
      "children": [
        1
      ],
      "matrix": [
        0.9995075464248657,
        -0.003323688404634602,
        0.031201954931020737,
        0.0,
        0.0026639148127287626,
        0.9997724890708923,
        0.02116307429969333,
        0.0,
        -0.031265195459127426,
        -0.0210695341229441,
        0.9992890357971191,
        0.0,
        -0.12355226278305054,
        -0.903371453285219,
        7.744575500488281,
        1.0
      ],
      "name": "Sketchfab_model"
    },
    {
      "children": [
        2,
        3,
        4,
        5,
        6,
        7,
        8,
        9,
        10,
        11
      ],
      "name": "model.obj.cleaner.materialmerger.gles"
    },
    {
      "mesh": 0,
      "name": "Object_2"
    },
    {
      "mesh": 1,
      "name": "Object_3"
    },
    {
      "mesh": 2,
      "name": "Object_4"
    },
    {
      "mesh": 3,
      "name": "Object_5"
    },
    {
      "mesh": 4,
      "name": "Object_6"
    },
    {
      "mesh": 5,
      "name": "Object_7"
    },
    {
      "mesh": 6,
      "name": "Object_8"
    },
    {
      "mesh": 7,
      "name": "Object_9"
    },
    {
      "mesh": 8,
      "name": "Object_10"
    },
    {
      "mesh": 9,
      "name": "Object_11"
    }
  ],
  "samplers": [
    {
      "magFilter": 9729,
      "minFilter": 9987,
      "wrapS": 10497,
      "wrapT": 10497
    }
  ],
  "scene": 0,
  "scenes": [
    {
      "name": "Sketchfab_Scene",
      "nodes": [
        0
      ]
    }
  ],
  "textures": [
    {
      "sampler": 0,
      "source": 0
    }
  ]
}
