{
	"asset":{
		"generator":"Khronos glTF Blender I/O v4.0.44",
		"version":"2.0"
	},
	"extensionsUsed":[
		"KHR_materials_specular",
		"KHR_materials_ior"
	],
	"scene":0,
	"scenes":[
		{
			"name":"Scene",
			"nodes":[
				0
			]
		}
	],
	"nodes":[
		{
			"mesh":0,
			"name":"GS Nettle 01",
			"translation":[
				8.191375732421875,
				0.013814210891723633,
				-0.3188621997833252
			]
		}
	],
	"materials":[
		{
			"doubleSided":true,
			"extensions":{
				"KHR_materials_specular":{
					"specularFactor":0.9569377899169922
				},
				"KHR_materials_ior":{
					"ior":1.4500000476837158
				}
			},
			"name":".gs_nettle_stem.001",
			"normalTexture":{
				"index":0
			},
			"pbrMetallicRoughness":{
				"baseColorTexture":{
					"index":1
				},
				"metallicFactor":0,
				"roughnessFactor":0.6000000238418579
			}
		},
		{
			"alphaMode":"BLEND",
			"doubleSided":true,
			"name":".gs_nettle-basecolor.001",
			"normalTexture":{
				"index":2
			},
			"pbrMetallicRoughness":{
				"baseColorTexture":{
					"index":3
				},
				"metallicFactor":0,
				"metallicRoughnessTexture":{
					"index":4
				}
			}
		}
	],
	"meshes":[
		{
			"name":"gs_nettle_01",
			"primitives":[
				{
					"attributes":{
						"POSITION":0,
						"NORMAL":1,
						"TEXCOORD_0":2
					},
					"indices":3,
					"material":0
				},
				{
					"attributes":{
						"POSITION":4,
						"NORMAL":5,
						"TEXCOORD_0":6
					},
					"indices":7,
					"material":1
				}
			]
		}
	],
	"textures":[
		{
			"sampler":0,
			"source":0
		},
		{
			"sampler":0,
			"source":1
		},
		{
			"sampler":1,
			"source":2
		},
		{
			"sampler":1,
			"source":3
		},
		{
			"sampler":1,
			"source":4
		}
	],
	"images":[
		{
			"mimeType":"image/jpeg",
			"name":"nettle!bump",
			"uri":"nettlebump.jpg"
		},
		{
			"mimeType":"image/jpeg",
			"name":"dandelion01",
			"uri":"dandelion01.jpg"
		},
		{
			"mimeType":"image/png",
			"name":"nettle-normal",
			"uri":"nettle-normal.png"
		},
		{
			"mimeType":"image/png",
			"name":"nettle",
			"uri":"nettle.png"
		},
		{
			"mimeType":"image/png",
			"name":"nettle",
			"uri":"nettle-1.png"
		}
	],
	"accessors":[
		{
			"bufferView":0,
			"componentType":5126,
			"count":327,
			"max":[
				0.018625540658831596,
				0.38078585267066956,
				0.033052850514650345
			],
			"min":[
				-0.0025283372960984707,
				-0.013814268633723259,
				-0.005147119518369436
			],
			"type":"VEC3"
		},
		{
			"bufferView":1,
			"componentType":5126,
			"count":327,
			"type":"VEC3"
		},
		{
			"bufferView":2,
			"componentType":5126,
			"count":327,
			"type":"VEC2"
		},
		{
			"bufferView":3,
			"componentType":5123,
			"count":480,
			"type":"SCALAR"
		},
		{
			"bufferView":4,
			"componentType":5126,
			"count":1793,
			"max":[
				0.06617578864097595,
				0.3943413197994232,
				0.08413068950176239
			],
			"min":[
				-0.0772486999630928,
				0.024223225191235542,
				-0.09540072083473206
			],
			"type":"VEC3"
		},
		{
			"bufferView":5,
			"componentType":5126,
			"count":1793,
			"type":"VEC3"
		},
		{
			"bufferView":6,
			"componentType":5126,
			"count":1793,
			"type":"VEC2"
		},
		{
			"bufferView":7,
			"componentType":5123,
			"count":7776,
			"type":"SCALAR"
		}
	],
	"bufferViews":[
		{
			"buffer":0,
			"byteLength":3924,
			"byteOffset":0,
			"target":34962
		},
		{
			"buffer":0,
			"byteLength":3924,
			"byteOffset":3924,
			"target":34962
		},
		{
			"buffer":0,
			"byteLength":2616,
			"byteOffset":7848,
			"target":34962
		},
		{
			"buffer":0,
			"byteLength":960,
			"byteOffset":10464,
			"target":34963
		},
		{
			"buffer":0,
			"byteLength":21516,
			"byteOffset":11424,
			"target":34962
		},
		{
			"buffer":0,
			"byteLength":21516,
			"byteOffset":32940,
			"target":34962
		},
		{
			"buffer":0,
			"byteLength":14344,
			"byteOffset":54456,
			"target":34962
		},
		{
			"buffer":0,
			"byteLength":15552,
			"byteOffset":68800,
			"target":34963
		}
	],
	"samplers":[
		{
			"magFilter":9729,
			"minFilter":9987
		},
		{
			"magFilter":9729,
			"minFilter":9987,
			"wrapS":33071,
			"wrapT":33071
		}
	],
	"buffers":[
		{
			"byteLength":84352,
			"uri":"plant4.bin"
		}
	]
}
